<!--Dora Wu's Assignment 2-->

<svg xmlns="http://www.w3.org/2000/svg">
<defs>
<symbol id="icon-eight_dots" viewBox="0 0 43 32">
<title>eight_dots</title>
<path d="M11.954 20.167c0 2.339-1.896 4.235-4.235 4.235s-4.235-1.896-4.235-4.235c0-2.339 1.896-4.235 4.235-4.235s4.235 1.896 4.235 4.235z"></path>
<path d="M20.988 20.167c0 2.339-1.896 4.235-4.235 4.235s-4.235-1.896-4.235-4.235c0-2.339 1.896-4.235 4.235-4.235s4.235 1.896 4.235 4.235z"></path>
<path d="M11.954 10.967c0 2.339-1.896 4.235-4.235 4.235s-4.235-1.896-4.235-4.235c0-2.339 1.896-4.235 4.235-4.235s4.235 1.896 4.235 4.235z"></path>
<path d="M20.988 11.033c0 2.339-1.896 4.235-4.235 4.235s-4.235-1.896-4.235-4.235c0-2.339 1.896-4.235 4.235-4.235s4.235 1.896 4.235 4.235z"></path>
<path d="M30.085 20.167c0 2.339-1.896 4.235-4.235 4.235s-4.235-1.896-4.235-4.235c0-2.339 1.896-4.235 4.235-4.235s4.235 1.896 4.235 4.235z"></path>
<path d="M39.118 20.167c0 2.339-1.896 4.235-4.235 4.235s-4.235-1.896-4.235-4.235c0-2.339 1.896-4.235 4.235-4.235s4.235 1.896 4.235 4.235z"></path>
<path d="M30.085 11.033c0 2.339-1.896 4.235-4.235 4.235s-4.235-1.896-4.235-4.235c0-2.339 1.896-4.235 4.235-4.235s4.235 1.896 4.235 4.235z"></path>
<path d="M39.118 11.033c0 2.339-1.896 4.235-4.235 4.235s-4.235-1.896-4.235-4.235c0-2.339 1.896-4.235 4.235-4.235s4.235 1.896 4.235 4.235z"></path>
</symbol>
<symbol id="icon-five_dots" viewBox="0 0 43 32">
<title>five_dots</title>
<path d="M21.035 8.667c0 2.339-1.896 4.235-4.235 4.235s-4.235-1.896-4.235-4.235c0-2.339 1.896-4.235 4.235-4.235s4.235 1.896 4.235 4.235z"></path>
<path d="M30.068 8.667c0 2.339-1.896 4.235-4.235 4.235s-4.235-1.896-4.235-4.235c0-2.339 1.896-4.235 4.235-4.235s4.235 1.896 4.235 4.235z"></path>
<path d="M25.568 16.467c0 2.339-1.896 4.235-4.235 4.235s-4.235-1.896-4.235-4.235c0-2.339 1.896-4.235 4.235-4.235s4.235 1.896 4.235 4.235z"></path>
<path d="M21.035 24.4c0 2.339-1.896 4.235-4.235 4.235s-4.235-1.896-4.235-4.235c0-2.339 1.896-4.235 4.235-4.235s4.235 1.896 4.235 4.235z"></path>
<path d="M30.068 24.4c0 2.339-1.896 4.235-4.235 4.235s-4.235-1.896-4.235-4.235c0-2.339 1.896-4.235 4.235-4.235s4.235 1.896 4.235 4.235z"></path>
</symbol>
<symbol id="icon-four_dots" viewBox="0 0 43 32">
<title>four_dots</title>
<path d="M19.285 8.9c0 2.339-1.896 4.235-4.235 4.235s-4.235-1.896-4.235-4.235c0-2.339 1.896-4.235 4.235-4.235s4.235 1.896 4.235 4.235z"></path>
<path d="M30.585 8.967c0 2.339-1.896 4.235-4.235 4.235s-4.235-1.896-4.235-4.235c0-2.339 1.896-4.235 4.235-4.235s4.235 1.896 4.235 4.235z"></path>
<path d="M19.285 20.067c0 2.339-1.896 4.235-4.235 4.235s-4.235-1.896-4.235-4.235c0-2.339 1.896-4.235 4.235-4.235s4.235 1.896 4.235 4.235z"></path>
<path d="M30.585 20.133c0 2.339-1.896 4.235-4.235 4.235s-4.235-1.896-4.235-4.235c0-2.339 1.896-4.235 4.235-4.235s4.235 1.896 4.235 4.235z"></path>
</symbol>
<symbol id="icon-nine_dots" viewBox="0 0 43 32">
<title>nine_dots</title>
<path d="M15.597 26.247c0 2.663-2.158 4.821-4.821 4.821s-4.821-2.158-4.821-4.821c0-2.663 2.158-4.821 4.821-4.821s4.821 2.158 4.821 4.821z"></path>
<path d="M25.881 26.18c0 2.663-2.158 4.821-4.821 4.821s-4.821-2.158-4.821-4.821c0-2.663 2.158-4.821 4.821-4.821s4.821 2.158 4.821 4.821z"></path>
<path d="M15.597 15.773c0 2.663-2.158 4.821-4.821 4.821s-4.821-2.158-4.821-4.821c0-2.663 2.158-4.821 4.821-4.821s4.821 2.158 4.821 4.821z"></path>
<path d="M25.881 15.783c0 2.663-2.158 4.821-4.821 4.821s-4.821-2.158-4.821-4.821c0-2.663 2.158-4.821 4.821-4.821s4.821 2.158 4.821 4.821z"></path>
<path d="M36.238 26.18c0 2.663-2.158 4.821-4.821 4.821s-4.821-2.158-4.821-4.821c0-2.663 2.158-4.821 4.821-4.821s4.821 2.158 4.821 4.821z"></path>
<path d="M36.238 15.783c0 2.663-2.158 4.821-4.821 4.821s-4.821-2.158-4.821-4.821c0-2.663 2.158-4.821 4.821-4.821s4.821 2.158 4.821 4.821z"></path>
<path d="M15.597 5.562c0 2.663-2.158 4.821-4.821 4.821s-4.821-2.158-4.821-4.821c0-2.663 2.158-4.821 4.821-4.821s4.821 2.158 4.821 4.821z"></path>
<path d="M25.881 5.571c0 2.663-2.158 4.821-4.821 4.821s-4.821-2.158-4.821-4.821c0-2.663 2.158-4.821 4.821-4.821s4.821 2.158 4.821 4.821z"></path>
<path d="M36.238 5.571c0 2.663-2.158 4.821-4.821 4.821s-4.821-2.158-4.821-4.821c0-2.663 2.158-4.821 4.821-4.821s4.821 2.158 4.821 4.821z"></path>
</symbol>
<symbol id="icon-one_dot" viewBox="0 0 43 32">
<title>one_dot</title>
<path d="M30.635 16c0 5.137-4.164 9.301-9.301 9.301s-9.301-4.164-9.301-9.301c0-5.137 4.164-9.301 9.301-9.301s9.301 4.164 9.301 9.301z"></path>
</symbol>
<symbol id="icon-seven_dots" viewBox="0 0 43 32">
<title>seven_dots</title>
<path d="M16.443 4.533c0 2.339-1.896 4.235-4.235 4.235s-4.235-1.896-4.235-4.235c0-2.339 1.896-4.235 4.235-4.235s4.235 1.896 4.235 4.235z"></path>
<path d="M24.943 7.289c0 2.339-1.896 4.235-4.235 4.235s-4.235-1.896-4.235-4.235c0-2.339 1.896-4.235 4.235-4.235s4.235 1.896 4.235 4.235z"></path>
<path d="M21.421 27.267c0 2.339-1.896 4.235-4.235 4.235s-4.235-1.896-4.235-4.235c0-2.339 1.896-4.235 4.235-4.235s4.235 1.896 4.235 4.235z"></path>
<path d="M30.454 27.333c0 2.339-1.896 4.235-4.235 4.235s-4.235-1.896-4.235-4.235c0-2.339 1.896-4.235 4.235-4.235s4.235 1.896 4.235 4.235z"></path>
<path d="M21.421 18.133c0 2.339-1.896 4.235-4.235 4.235s-4.235-1.896-4.235-4.235c0-2.339 1.896-4.235 4.235-4.235s4.235 1.896 4.235 4.235z"></path>
<path d="M30.454 18.2c0 2.339-1.896 4.235-4.235 4.235s-4.235-1.896-4.235-4.235c0-2.339 1.896-4.235 4.235-4.235s4.235 1.896 4.235 4.235z"></path>
<path d="M33.568 9.778c0 2.339-1.896 4.235-4.235 4.235s-4.235-1.896-4.235-4.235c0-2.339 1.896-4.235 4.235-4.235s4.235 1.896 4.235 4.235z"></path>
</symbol>
<symbol id="icon-six_dots" viewBox="0 0 43 32">
<title>six_dots</title>
<path d="M21.243 5.067c0 2.339-1.896 4.235-4.235 4.235s-4.235-1.896-4.235-4.235c0-2.339 1.896-4.235 4.235-4.235s4.235 1.896 4.235 4.235z"></path>
<path d="M30.276 5.067c0 2.339-1.896 4.235-4.235 4.235s-4.235-1.896-4.235-4.235c0-2.339 1.896-4.235 4.235-4.235s4.235 1.896 4.235 4.235z"></path>
<path d="M21.243 26.2c0 2.339-1.896 4.235-4.235 4.235s-4.235-1.896-4.235-4.235c0-2.339 1.896-4.235 4.235-4.235s4.235 1.896 4.235 4.235z"></path>
<path d="M30.276 26.267c0 2.339-1.896 4.235-4.235 4.235s-4.235-1.896-4.235-4.235c0-2.339 1.896-4.235 4.235-4.235s4.235 1.896 4.235 4.235z"></path>
<path d="M21.243 17.067c0 2.339-1.896 4.235-4.235 4.235s-4.235-1.896-4.235-4.235c0-2.339 1.896-4.235 4.235-4.235s4.235 1.896 4.235 4.235z"></path>
<path d="M30.276 17.133c0 2.339-1.896 4.235-4.235 4.235s-4.235-1.896-4.235-4.235c0-2.339 1.896-4.235 4.235-4.235s4.235 1.896 4.235 4.235z"></path>
</symbol>
<symbol id="icon-three_dots" viewBox="0 0 43 32">
<title>three_dots</title>
<path d="M18.001 9.8c0 2.339-1.896 4.235-4.235 4.235s-4.235-1.896-4.235-4.235c0-2.339 1.896-4.235 4.235-4.235s4.235 1.896 4.235 4.235z"></path>
<path d="M24.468 17.2c0 2.339-1.896 4.235-4.235 4.235s-4.235-1.896-4.235-4.235c0-2.339 1.896-4.235 4.235-4.235s4.235 1.896 4.235 4.235z"></path>
<path d="M31.835 23.733c0 2.339-1.896 4.235-4.235 4.235s-4.235-1.896-4.235-4.235c0-2.339 1.896-4.235 4.235-4.235s4.235 1.896 4.235 4.235z"></path>
</symbol>
<symbol id="icon-two_dots" viewBox="0 0 43 32">
<title>two_dots</title>
<path d="M25.801 10.067c0 2.339-1.896 4.235-4.235 4.235s-4.235-1.896-4.235-4.235c0-2.339 1.896-4.235 4.235-4.235s4.235 1.896 4.235 4.235z"></path>
<path d="M25.801 19.4c0 2.339-1.896 4.235-4.235 4.235s-4.235-1.896-4.235-4.235c0-2.339 1.896-4.235 4.235-4.235s4.235 1.896 4.235 4.235z"></path>
</symbol>
</defs>
</svg>